<svg viewBox="0 0 127 128" focusable="false" class="chakra-icon css-171po5q" xmlns="http://www.w3.org/2000/svg" aria-hidden="true"><g clip-path="url(#clip0_14603_344890)"><path d="M126.4 0L0 0L0 128H126.4V0Z" fill="#010101"></path><path d="M94.2727 56.334C94.2727 62.3073 91.1864 67.5553 88.3108 71.1393L74.8703 87.7366H67.7287L81.8855 70.9366C80.1159 72.0033 78.083 72.5366 75.8499 72.5366C71.5207 72.5366 67.9815 71.278 65.2323 69.1553C65.2955 69.55 65.2955 70.0193 65.2955 70.478C65.2955 80.9633 58.807 88.5366 48.7687 88.5366C38.4776 88.5366 32.1787 80.9633 32.1787 70.478C32.1787 59.918 38.4776 52.4193 48.7687 52.4193C53.2243 52.4193 56.9004 53.8166 59.6496 56.27C59.776 46.638 66.7912 39.47 77.156 39.47C87.9211 39.47 94.2727 46.7766 94.2727 56.334ZM59.1335 70.478C59.1335 62.7766 55.7944 57.198 48.7792 57.198C41.7008 57.198 38.3512 62.7766 38.3512 70.478C38.3512 78.2433 41.6903 83.758 48.7792 83.758C55.7944 83.758 59.1335 78.2433 59.1335 70.478ZM88.3108 56.334C88.3108 49.8273 84.3819 44.2486 77.1666 44.2486C70.025 44.2486 65.8222 49.8273 65.8222 56.5366C65.8222 63.1073 69.8248 68.4833 77.0296 68.4833C84.108 68.4833 88.3108 62.7126 88.3108 56.334Z" fill="#F2F2F2"></path></g><defs><clipPath id="clip0_14603_344890"><rect width="126.4" height="128" fill="#F2F2F2"></rect></clipPath></defs></svg>